<mxfile host="app.diagrams.net" agent="Mozilla/5.0 (Windows NT 10.0; Win64; x64) AppleWebKit/537.36 (KHTML, like Gecko) Chrome/127.0.0.0 Safari/537.36 OPR/113.0.0.0" version="24.7.12">
  <diagram name="Страница — 1" id="xLPQ6xgm3jH656loGgVK">
    <mxGraphModel dx="1552" dy="894" grid="1" gridSize="10" guides="1" tooltips="1" connect="1" arrows="1" fold="1" page="1" pageScale="1" pageWidth="827" pageHeight="1169" math="0" shadow="0">
      <root>
        <mxCell id="0" />
        <mxCell id="1" parent="0" />
        <mxCell id="Aj1gH7jwyWjc-OqP11IL-3" style="edgeStyle=orthogonalEdgeStyle;rounded=0;orthogonalLoop=1;jettySize=auto;html=1;exitX=0.5;exitY=1;exitDx=0;exitDy=0;exitPerimeter=0;entryX=0.5;entryY=0;entryDx=0;entryDy=0;" edge="1" parent="1" source="Aj1gH7jwyWjc-OqP11IL-1" target="Aj1gH7jwyWjc-OqP11IL-2">
          <mxGeometry relative="1" as="geometry" />
        </mxCell>
        <mxCell id="Aj1gH7jwyWjc-OqP11IL-1" value="НачалоДон" style="strokeWidth=2;html=1;shape=mxgraph.flowchart.terminator;whiteSpace=wrap;" vertex="1" parent="1">
          <mxGeometry x="350" y="60" width="100" height="60" as="geometry" />
        </mxCell>
        <mxCell id="Aj1gH7jwyWjc-OqP11IL-5" style="edgeStyle=orthogonalEdgeStyle;rounded=0;orthogonalLoop=1;jettySize=auto;html=1;exitX=0.5;exitY=1;exitDx=0;exitDy=0;entryX=0.5;entryY=0;entryDx=0;entryDy=0;" edge="1" parent="1" source="Aj1gH7jwyWjc-OqP11IL-2" target="Aj1gH7jwyWjc-OqP11IL-4">
          <mxGeometry relative="1" as="geometry" />
        </mxCell>
        <mxCell id="Aj1gH7jwyWjc-OqP11IL-2" value="N, array,&lt;div&gt;counterDon&lt;/div&gt;" style="shape=parallelogram;html=1;strokeWidth=2;perimeter=parallelogramPerimeter;whiteSpace=wrap;rounded=1;arcSize=12;size=0.23;" vertex="1" parent="1">
          <mxGeometry x="350" y="150" width="100" height="60" as="geometry" />
        </mxCell>
        <mxCell id="Aj1gH7jwyWjc-OqP11IL-7" style="edgeStyle=orthogonalEdgeStyle;rounded=0;orthogonalLoop=1;jettySize=auto;html=1;exitX=0.5;exitY=1;exitDx=0;exitDy=0;entryX=0.5;entryY=0;entryDx=0;entryDy=0;" edge="1" parent="1" source="Aj1gH7jwyWjc-OqP11IL-4" target="Aj1gH7jwyWjc-OqP11IL-6">
          <mxGeometry relative="1" as="geometry" />
        </mxCell>
        <mxCell id="Aj1gH7jwyWjc-OqP11IL-18" style="edgeStyle=orthogonalEdgeStyle;rounded=0;orthogonalLoop=1;jettySize=auto;html=1;exitX=1;exitY=0.5;exitDx=0;exitDy=0;" edge="1" parent="1" source="Aj1gH7jwyWjc-OqP11IL-4">
          <mxGeometry relative="1" as="geometry">
            <mxPoint x="401" y="620" as="targetPoint" />
            <Array as="points">
              <mxPoint x="560" y="280" />
              <mxPoint x="560" y="580" />
              <mxPoint x="401" y="580" />
            </Array>
          </mxGeometry>
        </mxCell>
        <mxCell id="Aj1gH7jwyWjc-OqP11IL-4" value="i = 0;&amp;nbsp; &amp;nbsp; &amp;nbsp; i &amp;lt; N;&amp;nbsp; &amp;nbsp; &amp;nbsp; i++" style="shape=hexagon;perimeter=hexagonPerimeter2;whiteSpace=wrap;html=1;fixedSize=1;" vertex="1" parent="1">
          <mxGeometry x="320" y="240" width="160" height="80" as="geometry" />
        </mxCell>
        <mxCell id="Aj1gH7jwyWjc-OqP11IL-9" style="edgeStyle=orthogonalEdgeStyle;rounded=0;orthogonalLoop=1;jettySize=auto;html=1;exitX=0.5;exitY=1;exitDx=0;exitDy=0;" edge="1" parent="1" source="Aj1gH7jwyWjc-OqP11IL-6" target="Aj1gH7jwyWjc-OqP11IL-8">
          <mxGeometry relative="1" as="geometry" />
        </mxCell>
        <mxCell id="Aj1gH7jwyWjc-OqP11IL-10" value="Да" style="edgeLabel;html=1;align=center;verticalAlign=middle;resizable=0;points=[];" vertex="1" connectable="0" parent="Aj1gH7jwyWjc-OqP11IL-9">
          <mxGeometry x="-0.13" y="2" relative="1" as="geometry">
            <mxPoint as="offset" />
          </mxGeometry>
        </mxCell>
        <mxCell id="Aj1gH7jwyWjc-OqP11IL-12" style="edgeStyle=orthogonalEdgeStyle;rounded=0;orthogonalLoop=1;jettySize=auto;html=1;exitX=0;exitY=0.5;exitDx=0;exitDy=0;entryX=1;entryY=0.5;entryDx=0;entryDy=0;" edge="1" parent="1" source="Aj1gH7jwyWjc-OqP11IL-6" target="Aj1gH7jwyWjc-OqP11IL-11">
          <mxGeometry relative="1" as="geometry" />
        </mxCell>
        <mxCell id="Aj1gH7jwyWjc-OqP11IL-13" value="Нет" style="edgeLabel;html=1;align=center;verticalAlign=middle;resizable=0;points=[];" vertex="1" connectable="0" parent="Aj1gH7jwyWjc-OqP11IL-12">
          <mxGeometry x="-0.08" y="4" relative="1" as="geometry">
            <mxPoint as="offset" />
          </mxGeometry>
        </mxCell>
        <mxCell id="Aj1gH7jwyWjc-OqP11IL-6" value="counterDon.&lt;div&gt;ContainsKey(array[i])&lt;/div&gt;" style="rhombus;whiteSpace=wrap;html=1;" vertex="1" parent="1">
          <mxGeometry x="300" y="350" width="200" height="80" as="geometry" />
        </mxCell>
        <mxCell id="Aj1gH7jwyWjc-OqP11IL-16" style="edgeStyle=orthogonalEdgeStyle;rounded=0;orthogonalLoop=1;jettySize=auto;html=1;exitX=0.5;exitY=1;exitDx=0;exitDy=0;" edge="1" parent="1" source="Aj1gH7jwyWjc-OqP11IL-8">
          <mxGeometry relative="1" as="geometry">
            <mxPoint x="110" y="390" as="targetPoint" />
          </mxGeometry>
        </mxCell>
        <mxCell id="Aj1gH7jwyWjc-OqP11IL-8" value="counterDon[array[i]]++" style="rounded=0;whiteSpace=wrap;html=1;" vertex="1" parent="1">
          <mxGeometry x="340" y="470" width="120" height="60" as="geometry" />
        </mxCell>
        <mxCell id="Aj1gH7jwyWjc-OqP11IL-15" style="edgeStyle=orthogonalEdgeStyle;rounded=0;orthogonalLoop=1;jettySize=auto;html=1;exitX=0;exitY=0.5;exitDx=0;exitDy=0;entryX=0;entryY=0.5;entryDx=0;entryDy=0;" edge="1" parent="1" source="Aj1gH7jwyWjc-OqP11IL-11" target="Aj1gH7jwyWjc-OqP11IL-4">
          <mxGeometry relative="1" as="geometry" />
        </mxCell>
        <mxCell id="Aj1gH7jwyWjc-OqP11IL-11" value="counterDon.&lt;div&gt;Add(array[i], 1)&lt;/div&gt;" style="rounded=0;whiteSpace=wrap;html=1;" vertex="1" parent="1">
          <mxGeometry x="130" y="360" width="120" height="60" as="geometry" />
        </mxCell>
        <mxCell id="Aj1gH7jwyWjc-OqP11IL-22" style="edgeStyle=orthogonalEdgeStyle;rounded=0;orthogonalLoop=1;jettySize=auto;html=1;exitX=0.5;exitY=1;exitDx=0;exitDy=0;entryX=0.5;entryY=0;entryDx=0;entryDy=0;" edge="1" parent="1" source="Aj1gH7jwyWjc-OqP11IL-20" target="Aj1gH7jwyWjc-OqP11IL-21">
          <mxGeometry relative="1" as="geometry" />
        </mxCell>
        <mxCell id="Aj1gH7jwyWjc-OqP11IL-25" style="edgeStyle=orthogonalEdgeStyle;rounded=0;orthogonalLoop=1;jettySize=auto;html=1;exitX=1;exitY=0.5;exitDx=0;exitDy=0;" edge="1" parent="1" source="Aj1gH7jwyWjc-OqP11IL-20" target="Aj1gH7jwyWjc-OqP11IL-24">
          <mxGeometry relative="1" as="geometry">
            <Array as="points">
              <mxPoint x="570" y="660" />
              <mxPoint x="570" y="860" />
              <mxPoint x="400" y="860" />
            </Array>
          </mxGeometry>
        </mxCell>
        <mxCell id="Aj1gH7jwyWjc-OqP11IL-20" value="foreach (var nbr in counterDon)" style="shape=hexagon;perimeter=hexagonPerimeter2;whiteSpace=wrap;html=1;fixedSize=1;" vertex="1" parent="1">
          <mxGeometry x="340" y="620" width="120" height="80" as="geometry" />
        </mxCell>
        <mxCell id="Aj1gH7jwyWjc-OqP11IL-23" style="edgeStyle=orthogonalEdgeStyle;rounded=0;orthogonalLoop=1;jettySize=auto;html=1;exitX=0.5;exitY=1;exitDx=0;exitDy=0;entryX=0;entryY=0.5;entryDx=0;entryDy=0;" edge="1" parent="1" source="Aj1gH7jwyWjc-OqP11IL-21" target="Aj1gH7jwyWjc-OqP11IL-20">
          <mxGeometry relative="1" as="geometry">
            <Array as="points">
              <mxPoint x="400" y="820" />
              <mxPoint x="230" y="820" />
              <mxPoint x="230" y="660" />
            </Array>
          </mxGeometry>
        </mxCell>
        <mxCell id="Aj1gH7jwyWjc-OqP11IL-21" value="Число вхождения числадон&lt;div&gt;{nbr.Key} в массивдон = {nbr.Value}&lt;/div&gt;" style="shape=parallelogram;perimeter=parallelogramPerimeter;whiteSpace=wrap;html=1;fixedSize=1;" vertex="1" parent="1">
          <mxGeometry x="270" y="740" width="260" height="60" as="geometry" />
        </mxCell>
        <mxCell id="Aj1gH7jwyWjc-OqP11IL-24" value="КонецДон" style="strokeWidth=2;html=1;shape=mxgraph.flowchart.terminator;whiteSpace=wrap;" vertex="1" parent="1">
          <mxGeometry x="350" y="890" width="100" height="60" as="geometry" />
        </mxCell>
        <mxCell id="Aj1gH7jwyWjc-OqP11IL-35" style="edgeStyle=orthogonalEdgeStyle;curved=1;rounded=0;orthogonalLoop=1;jettySize=auto;html=1;exitX=0.5;exitY=1;exitDx=0;exitDy=0;entryX=0.5;entryY=0;entryDx=0;entryDy=0;" edge="1" parent="1" source="Aj1gH7jwyWjc-OqP11IL-27" target="Aj1gH7jwyWjc-OqP11IL-28">
          <mxGeometry relative="1" as="geometry" />
        </mxCell>
        <mxCell id="Aj1gH7jwyWjc-OqP11IL-27" value="&lt;font style=&quot;font-size: 19px;&quot;&gt;1&lt;/font&gt;" style="ellipse;whiteSpace=wrap;html=1;aspect=fixed;" vertex="1" parent="1">
          <mxGeometry x="1150" y="30" width="50" height="50" as="geometry" />
        </mxCell>
        <mxCell id="Aj1gH7jwyWjc-OqP11IL-36" style="edgeStyle=orthogonalEdgeStyle;curved=1;rounded=0;orthogonalLoop=1;jettySize=auto;html=1;exitX=0.5;exitY=1;exitDx=0;exitDy=0;entryX=0.5;entryY=0;entryDx=0;entryDy=0;" edge="1" parent="1" source="Aj1gH7jwyWjc-OqP11IL-28" target="Aj1gH7jwyWjc-OqP11IL-29">
          <mxGeometry relative="1" as="geometry" />
        </mxCell>
        <mxCell id="Aj1gH7jwyWjc-OqP11IL-28" value="&lt;font style=&quot;font-size: 19px;&quot;&gt;2&lt;/font&gt;" style="ellipse;whiteSpace=wrap;html=1;aspect=fixed;" vertex="1" parent="1">
          <mxGeometry x="1150" y="100" width="50" height="50" as="geometry" />
        </mxCell>
        <mxCell id="Aj1gH7jwyWjc-OqP11IL-37" style="edgeStyle=orthogonalEdgeStyle;curved=1;rounded=0;orthogonalLoop=1;jettySize=auto;html=1;exitX=0.5;exitY=1;exitDx=0;exitDy=0;" edge="1" parent="1" source="Aj1gH7jwyWjc-OqP11IL-29" target="Aj1gH7jwyWjc-OqP11IL-30">
          <mxGeometry relative="1" as="geometry" />
        </mxCell>
        <mxCell id="Aj1gH7jwyWjc-OqP11IL-50" value="да" style="edgeLabel;html=1;align=center;verticalAlign=middle;resizable=0;points=[];" vertex="1" connectable="0" parent="Aj1gH7jwyWjc-OqP11IL-37">
          <mxGeometry x="-0.1526" y="1" relative="1" as="geometry">
            <mxPoint as="offset" />
          </mxGeometry>
        </mxCell>
        <mxCell id="Aj1gH7jwyWjc-OqP11IL-44" style="edgeStyle=orthogonalEdgeStyle;curved=1;rounded=0;orthogonalLoop=1;jettySize=auto;html=1;exitX=1;exitY=0.5;exitDx=0;exitDy=0;" edge="1" parent="1" source="Aj1gH7jwyWjc-OqP11IL-29" target="Aj1gH7jwyWjc-OqP11IL-43">
          <mxGeometry relative="1" as="geometry">
            <Array as="points">
              <mxPoint x="1330" y="195" />
              <mxPoint x="1330" y="340" />
              <mxPoint x="1175" y="340" />
            </Array>
          </mxGeometry>
        </mxCell>
        <mxCell id="Aj1gH7jwyWjc-OqP11IL-53" value="да" style="edgeLabel;html=1;align=center;verticalAlign=middle;resizable=0;points=[];" vertex="1" connectable="0" parent="Aj1gH7jwyWjc-OqP11IL-44">
          <mxGeometry x="-0.076" y="-3" relative="1" as="geometry">
            <mxPoint as="offset" />
          </mxGeometry>
        </mxCell>
        <mxCell id="Aj1gH7jwyWjc-OqP11IL-29" value="&lt;font style=&quot;font-size: 19px;&quot;&gt;3&lt;/font&gt;" style="ellipse;whiteSpace=wrap;html=1;aspect=fixed;" vertex="1" parent="1">
          <mxGeometry x="1150" y="170" width="50" height="50" as="geometry" />
        </mxCell>
        <mxCell id="Aj1gH7jwyWjc-OqP11IL-38" style="edgeStyle=orthogonalEdgeStyle;curved=1;rounded=0;orthogonalLoop=1;jettySize=auto;html=1;exitX=1;exitY=0.5;exitDx=0;exitDy=0;entryX=0.5;entryY=1;entryDx=0;entryDy=0;" edge="1" parent="1" source="Aj1gH7jwyWjc-OqP11IL-30" target="Aj1gH7jwyWjc-OqP11IL-31">
          <mxGeometry relative="1" as="geometry" />
        </mxCell>
        <mxCell id="Aj1gH7jwyWjc-OqP11IL-52" value="нет" style="edgeLabel;html=1;align=center;verticalAlign=middle;resizable=0;points=[];" vertex="1" connectable="0" parent="Aj1gH7jwyWjc-OqP11IL-38">
          <mxGeometry x="-0.411" y="7" relative="1" as="geometry">
            <mxPoint as="offset" />
          </mxGeometry>
        </mxCell>
        <mxCell id="Aj1gH7jwyWjc-OqP11IL-41" style="edgeStyle=orthogonalEdgeStyle;curved=1;rounded=0;orthogonalLoop=1;jettySize=auto;html=1;exitX=0;exitY=0.5;exitDx=0;exitDy=0;entryX=0.5;entryY=1;entryDx=0;entryDy=0;" edge="1" parent="1" source="Aj1gH7jwyWjc-OqP11IL-30" target="Aj1gH7jwyWjc-OqP11IL-32">
          <mxGeometry relative="1" as="geometry" />
        </mxCell>
        <mxCell id="Aj1gH7jwyWjc-OqP11IL-51" value="да" style="edgeLabel;html=1;align=center;verticalAlign=middle;resizable=0;points=[];" vertex="1" connectable="0" parent="Aj1gH7jwyWjc-OqP11IL-41">
          <mxGeometry x="0.2232" y="-7" relative="1" as="geometry">
            <mxPoint as="offset" />
          </mxGeometry>
        </mxCell>
        <mxCell id="Aj1gH7jwyWjc-OqP11IL-30" value="&lt;font style=&quot;font-size: 19px;&quot;&gt;4&lt;/font&gt;" style="ellipse;whiteSpace=wrap;html=1;aspect=fixed;" vertex="1" parent="1">
          <mxGeometry x="1150" y="300" width="50" height="50" as="geometry" />
        </mxCell>
        <mxCell id="Aj1gH7jwyWjc-OqP11IL-39" style="edgeStyle=orthogonalEdgeStyle;curved=1;rounded=0;orthogonalLoop=1;jettySize=auto;html=1;exitX=0.5;exitY=0;exitDx=0;exitDy=0;entryX=1;entryY=0.5;entryDx=0;entryDy=0;" edge="1" parent="1" source="Aj1gH7jwyWjc-OqP11IL-31" target="Aj1gH7jwyWjc-OqP11IL-29">
          <mxGeometry relative="1" as="geometry" />
        </mxCell>
        <mxCell id="Aj1gH7jwyWjc-OqP11IL-31" value="&lt;font style=&quot;font-size: 19px;&quot;&gt;5&lt;/font&gt;" style="ellipse;whiteSpace=wrap;html=1;aspect=fixed;" vertex="1" parent="1">
          <mxGeometry x="1216" y="230" width="50" height="50" as="geometry" />
        </mxCell>
        <mxCell id="Aj1gH7jwyWjc-OqP11IL-42" style="edgeStyle=orthogonalEdgeStyle;curved=1;rounded=0;orthogonalLoop=1;jettySize=auto;html=1;exitX=0.5;exitY=0;exitDx=0;exitDy=0;entryX=0;entryY=0.5;entryDx=0;entryDy=0;" edge="1" parent="1" source="Aj1gH7jwyWjc-OqP11IL-32" target="Aj1gH7jwyWjc-OqP11IL-29">
          <mxGeometry relative="1" as="geometry" />
        </mxCell>
        <mxCell id="Aj1gH7jwyWjc-OqP11IL-32" value="&lt;font style=&quot;font-size: 19px;&quot;&gt;6&lt;/font&gt;" style="ellipse;whiteSpace=wrap;html=1;aspect=fixed;" vertex="1" parent="1">
          <mxGeometry x="1080" y="230" width="50" height="50" as="geometry" />
        </mxCell>
        <mxCell id="Aj1gH7jwyWjc-OqP11IL-46" style="edgeStyle=orthogonalEdgeStyle;curved=1;rounded=0;orthogonalLoop=1;jettySize=auto;html=1;exitX=0.5;exitY=1;exitDx=0;exitDy=0;entryX=0.5;entryY=0;entryDx=0;entryDy=0;" edge="1" parent="1" source="Aj1gH7jwyWjc-OqP11IL-43" target="Aj1gH7jwyWjc-OqP11IL-45">
          <mxGeometry relative="1" as="geometry" />
        </mxCell>
        <mxCell id="Aj1gH7jwyWjc-OqP11IL-54" value="да" style="edgeLabel;html=1;align=center;verticalAlign=middle;resizable=0;points=[];" vertex="1" connectable="0" parent="Aj1gH7jwyWjc-OqP11IL-46">
          <mxGeometry x="0.1368" y="-2" relative="1" as="geometry">
            <mxPoint as="offset" />
          </mxGeometry>
        </mxCell>
        <mxCell id="Aj1gH7jwyWjc-OqP11IL-49" style="edgeStyle=orthogonalEdgeStyle;curved=1;rounded=0;orthogonalLoop=1;jettySize=auto;html=1;exitX=1;exitY=0.5;exitDx=0;exitDy=0;entryX=0;entryY=0.5;entryDx=0;entryDy=0;" edge="1" parent="1" source="Aj1gH7jwyWjc-OqP11IL-43" target="Aj1gH7jwyWjc-OqP11IL-48">
          <mxGeometry relative="1" as="geometry" />
        </mxCell>
        <mxCell id="Aj1gH7jwyWjc-OqP11IL-43" value="&lt;font style=&quot;font-size: 19px;&quot;&gt;7&lt;/font&gt;" style="ellipse;whiteSpace=wrap;html=1;aspect=fixed;" vertex="1" parent="1">
          <mxGeometry x="1150" y="410" width="50" height="50" as="geometry" />
        </mxCell>
        <mxCell id="Aj1gH7jwyWjc-OqP11IL-47" style="edgeStyle=orthogonalEdgeStyle;curved=1;rounded=0;orthogonalLoop=1;jettySize=auto;html=1;exitX=0;exitY=0.5;exitDx=0;exitDy=0;entryX=0;entryY=0.5;entryDx=0;entryDy=0;" edge="1" parent="1" source="Aj1gH7jwyWjc-OqP11IL-45" target="Aj1gH7jwyWjc-OqP11IL-43">
          <mxGeometry relative="1" as="geometry" />
        </mxCell>
        <mxCell id="Aj1gH7jwyWjc-OqP11IL-55" value="да" style="edgeLabel;html=1;align=center;verticalAlign=middle;resizable=0;points=[];" vertex="1" connectable="0" parent="Aj1gH7jwyWjc-OqP11IL-47">
          <mxGeometry x="-0.0694" y="1" relative="1" as="geometry">
            <mxPoint as="offset" />
          </mxGeometry>
        </mxCell>
        <mxCell id="Aj1gH7jwyWjc-OqP11IL-45" value="&lt;font style=&quot;font-size: 19px;&quot;&gt;8&lt;/font&gt;" style="ellipse;whiteSpace=wrap;html=1;aspect=fixed;" vertex="1" parent="1">
          <mxGeometry x="1150" y="490" width="50" height="50" as="geometry" />
        </mxCell>
        <mxCell id="Aj1gH7jwyWjc-OqP11IL-48" value="&lt;font style=&quot;font-size: 19px;&quot;&gt;9&lt;/font&gt;" style="ellipse;whiteSpace=wrap;html=1;aspect=fixed;" vertex="1" parent="1">
          <mxGeometry x="1290" y="410" width="50" height="50" as="geometry" />
        </mxCell>
      </root>
    </mxGraphModel>
  </diagram>
</mxfile>
